HIERARCHY
ROOT pelvis
{
	OFFSET 0.000000 0.000000 0.000000
	CHANNELS 6 Xposition Yposition Zposition Zrotation Xrotation Yrotation
	JOINT lfemur
	{
		OFFSET 11.446000 0.000000 0.000000
		CHANNELS 3 Zrotation Xrotation Yrotation
		JOINT ltibia
		{
			OFFSET 0.000000 -42.030400 0.000000
			CHANNELS 3 Zrotation Xrotation Yrotation
			JOINT lfoot
			{
				OFFSET 0.000000 -39.930200 0.000000
				CHANNELS 3 Zrotation Xrotation Yrotation
				JOINT ltoes
				{
					OFFSET 0.000000 0.000000 11.775800
					CHANNELS 3 Zrotation Xrotation Yrotation
					End Site
					{
					    OFFSET 0.000000 0.000000 5.000000
					}
				}
			}
		}
	}
	JOINT rfemur
	{
		OFFSET -11.446000 0.000000 0.000000
		CHANNELS 3 Zrotation Xrotation Yrotation
		JOINT rtibia
		{
			OFFSET 0.000000 -42.030400 0.000000
			CHANNELS 3 Zrotation Xrotation Yrotation
			JOINT rfoot
			{
				OFFSET 0.000000 -39.930200 0.000000
				CHANNELS 3 Zrotation Xrotation Yrotation
				JOINT rtoes
				{
					OFFSET 0.000000 0.000000 11.775800
					CHANNELS 3 Zrotation Xrotation Yrotation
					End Site
					{
					    OFFSET 0.000000 0.000000 5.000000
					}
				}
			}
		}
	}
	JOINT thorax
	{
		OFFSET 0.000000 11.255600 -5.000000
		CHANNELS 3 Zrotation Xrotation Yrotation
		JOINT head
		{
			OFFSET 0.000000 43.799300 0.000000
			CHANNELS 3 Zrotation Xrotation Yrotation
			End Site
			{
			    OFFSET 0.000000 5.000000 0.000000
			}
		}
		JOINT lclavicle
		{
			OFFSET 0.000000 39.863000 0.000000
			CHANNELS 3 Zrotation Xrotation Yrotation
			JOINT lhumerus
			{
				OFFSET 17.380600 4.958300 0.000000
				CHANNELS 3 Zrotation Xrotation Yrotation
				JOINT lradius
				{
					OFFSET 0.000000 -27.561300 0.000000
					CHANNELS 3 Zrotation Xrotation Yrotation
					JOINT lhand
					{
						OFFSET 0.000000 -26.933000 0.000000
						CHANNELS 3 Zrotation Xrotation Yrotation
						End Site
						{
						    OFFSET 0.000000 -5.000000 0.000000
						}
					}
				}
			}
		}
		JOINT rclavicle
		{
			OFFSET 0.000000 39.863000 0.000000
			CHANNELS 3 Zrotation Xrotation Yrotation
			JOINT rhumerus
			{
				OFFSET -17.380600 4.958300 0.000000
				CHANNELS 3 Zrotation Xrotation Yrotation
				JOINT rradius
				{
					OFFSET 0.000000 -27.561300 0.000000
					CHANNELS 3 Zrotation Xrotation Yrotation
					JOINT rhand
					{
						OFFSET 0.000000 -26.933000 0.000000
						CHANNELS 3 Zrotation Xrotation Yrotation
						End Site
						{
						    OFFSET 0.000000 -5.000000 0.000000
						}
					}
				}
			}
		}
	}
}
MOTION
Frames:	16
Frame Time:	0.0333333
5.55293 83.7439 35.5738 4.10673 -0.150173 3.08552 -5.28097 20.5331 -5.09586 0.108704 24.0928 -0.231798 5.89839 0.0167786 -3.90418 -1.39131e-016 -5 -1.59635e-015 -3.39766 -28.2248 2.53656 -0.0812228 22.1904 0.22073 -0.366853 13.1281 -1.17559 -1.98785e-016 -5 -0 -1.86638 4.66702 -7.70734 3.40887 0.428966 -4.95545 4.47266e-016 7.95139e-016 -1.59028e-015 20.1347 -10.4928 -23.5869 20.8368 -29.2097 9.91838 -0.13305 -1.45067 -10.384 4.47266e-016 7.95139e-016 -1.59028e-015 -2.38941 7.88735 -0.042114 -11.6558 -18.2005 -4.51557 0.22046 -1.8668 13.408 
4.82249 84.4537 40.7295 1.97151 -0.511626 1.88026 -3.16605 16.8094 -4.38202 0.220932 35.1249 -0.834228 9.42169 7.67215 -6.38895 -3.11099e-015 -5 7.98176e-016 -0.0230102 -25.8444 1.77576 -0.102533 24.3222 0.252388 -1.18643 12.1447 1.31846 2.98267e-017 -5 -7.98176e-016 0.882164 4.23661 -6.95935 2.22742 1.36177 -4.64637 -1.04362e-015 -7.95139e-016 -0 18.5221 -8.96484 -21.9561 20.9549 -29.332 9.99559 -0.117069 -1.36052 -9.73241 -1.04362e-015 -7.95139e-016 -0 -3.3824 8.17517 -0.662598 -11.2816 -17.6858 -4.32429 0.295386 -2.15646 15.5406 
4.10859 85.4175 45.7823 0.640419 -1.34071 1.36826 -1.24369 11.0134 -4.29066 0.426774 46.548 -0.610905 7.538 22.1065 -10.6238 -0 -5 -0 2.43392 -21.3759 2.83014 -0.0992956 23.7417 0.260081 -1.17928 11.2175 0.999787 -2.6835e-016 -5 -7.98176e-016 2.23956 4.95205 -6.37437 2.22466 0.937736 -4.44393 2.98177e-016 0 7.95139e-016 17.3343 -7.95209 -20.7805 20.7742 -29.1455 9.87775 -0.116104 -1.35475 -9.69143 2.98177e-016 0 7.95139e-016 -3.72656 7.57352 0.298669 -11.9279 -18.5716 -4.65629 0.231221 -1.91115 13.734 
3.32569 86.3023 50.575 -0.904383 -1.76392 1.34133 0.978501 4.7742 -3.49463 0.768061 56.7284 -0.299626 8.2331 28.3548 -12.3846 -1.68593e-015 -5 -1.09749e-015 5.18514 -16.3103 4.54274 -0.0836378 21.4355 0.254625 -1.84993 9.43034 -1.10708 -2.6835e-016 -5 -7.98176e-016 3.60315 5.36105 -5.98092 1.86139 0.131429 -4.91176 3.97569e-016 -7.95139e-016 -0 16.34 -7.19616 -20.8358 20.2137 -28.5592 9.51437 -0.113475 -1.33925 -9.57947 3.97569e-016 -7.95139e-016 -0 -4.50252 6.26116 1.29719 -11.8057 -18.4053 -4.59287 0.217001 -1.8518 13.2988 
2.92935 86.8079 55.0502 -1.41414 -1.97141 0.774751 1.79128 -0.668826 -1.44936 1.21712 64.21 -0.882595 6.21357 20.3461 -11.053 -1.65984e-015 -5 -7.98176e-016 6.18737 -12.7746 4.88622 -0.0786945 20.8013 0.238129 -1.97084 6.94033 -1.12208 -6.06266e-016 -5 -2.39453e-015 4.00147 5.70368 -4.83141 1.88862 -0.426036 -5.50089 1.98785e-016 -1.59028e-015 7.95139e-016 15.1675 -6.53995 -21.213 19.4827 -27.7781 9.04631 -0.122228 -1.39034 -9.94718 1.98785e-016 -1.59028e-015 7.95139e-016 -5.5223 4.40768 3.52056 -12.2857 -19.0556 -4.84329 0.187004 -1.72045 12.3394 
2.45979 87.0069 59.4945 -2.0873 -2.34061 0.050335 3.21394 -6.31402 0.964025 1.74236 69.516 -1.55258 4.34893 12.0753 -9.75088 -1.91305e-016 -5 -2.19498e-015 7.26875 -8.95255 4.76986 -0.0722991 19.9136 0.196544 -2.76642 4.55645 -1.02995 4.67135e-016 -5 7.98176e-016 4.41974 6.47844 -3.82418 1.8991 -0.631513 -5.37093 -1.98785e-016 7.95139e-016 3.97569e-016 14.0884 -5.88504 -21.2469 18.7978 -27.0295 8.61401 -0.178146 -1.67744 -12.031 -1.98785e-016 7.95139e-016 3.97569e-016 -6.56476 2.1783 6.28341 -12.9907 -19.9947 -5.21841 0.147539 -1.52835 10.9438 
2.00585 86.9525 63.7888 -3.15097 -2.32949 -0.533736 5.19642 -12.4784 3.04274 2.17583 72.4907 -2.08715 3.07791 5.93421 -8.63001 -1.39131e-016 -5 -1.59635e-015 8.68 -5.2516 4.77587 -0.0645559 18.4276 0.135138 -3.7998 2.59561 -1.3259 -0 -5 -0 5.38943 6.75303 -2.82902 1.8289 -0.553809 -5.42797 3.47873e-016 7.95139e-016 -0 12.8927 -5.14344 -22.0488 17.8649 -25.9822 8.03503 -0.168314 -1.63141 -11.6945 3.47873e-016 7.95139e-016 -0 -7.93252 -0.49477 8.73584 -13.532 -20.7033 -5.51239 0.10473 -1.28752 9.20159 
1.66934 86.579 68.0625 -3.91038 -2.2088 -1.53523 6.80648 -18.3894 5.17371 2.20974 72.6968 -2.18091 2.20763 2.00819 -7.04349 -3.62787e-016 -5 3.99088e-016 9.63058 -2.71828 4.8808 -0.0671284 19.0932 0.0995805 -3.78765 -0.584369 -1.17431 -9.93923e-017 -5 -0 6.05188 7.08405 -1.45531 1.6114 -1.00861 -5.50071 -1.98785e-016 -7.95139e-016 -0 11.6576 -3.91136 -22.9617 17.8812 -26.0008 8.045 -0.197223 -1.76482 -12.6668 -1.98785e-016 -7.95139e-016 -0 -9.39051 -3.02977 11.7848 -14.8096 -22.3324 -6.22573 0.0713596 -1.06029 7.56812 
1.55759 86.0733 72.3863 -4.38245 -2.03517 -1.82116 7.60319 -23.5287 6.47641 1.81537 70.0954 -1.82983 1.51152 -1.44611 -4.14218 4.10005e-017 -5 -9.9772e-017 10.1111 -0.614418 4.1173 -0.0754838 20.5931 0.0825851 -3.66734 -3.9522 -1.33004 -6.31137e-016 -5 -3.99088e-016 6.60916 7.49952 -0.757822 1.24498 -1.65735 -5.55056 -1.10348e-032 -7.95139e-016 -7.95139e-016 10.3763 -3.21056 -23.5753 17.2329 -25.2553 7.64969 -0.228537 -1.89888 -13.6474 -1.10348e-032 -7.95139e-016 -7.95139e-016 -10.9935 -5.49884 14.5975 -16.3776 -24.2488 -7.13691 0.0359289 -0.746457 5.3212 
1.26991 85.4709 76.5751 -5.46096 -1.64596 -2.70601 9.47789 -27.9726 8.24448 1.28916 65.0769 -1.32743 1.26336 -3.0307 -0.529735 -0 -5 -0 11.3968 2.21495 4.69842 -0.074916 19.9852 0.0184144 -4.29644 -5.84521 -2.29893 -2.33567e-016 -5 -3.99088e-016 7.72143 7.98842 0.51392 0.694748 -2.53753 -5.71422 -5.46658e-016 0 3.97569e-016 8.9589 -2.33967 -23.5237 17.1141 -25.1172 7.57787 -0.311854 -2.21381 -15.9682 -5.46658e-016 0 3.97569e-016 -12.5737 -8.55841 16.4297 -17.433 -25.4878 -7.77095 0.0201335 -0.549669 3.91738 
1.317 85.0405 80.8961 -5.86967 -0.904733 -3.03789 9.68025 -31.3034 8.19319 0.761854 56.4231 -0.828362 1.24088 -2.48756 2.68091 -0 -5 -0 11.6769 5.60545 4.19219 -0.0668575 17.8138 -0.0390967 -4.84301 -6.87673 -2.83901 8.69683e-017 -5 -0 8.32235 7.8805 1.27239 0.219195 -3.18794 -5.51973 1.2424e-016 0 1.98785e-016 7.59437 -1.60764 -23.3422 16.5065 -24.402 7.21378 -0.370728 -2.40967 -17.426 1.2424e-016 0 1.98785e-016 -14.2021 -11.1172 17.7701 -18.6475 -26.8635 -8.51989 0.0114048 -0.403105 2.8728 
1.50801 84.7878 85.3768 -5.85864 -0.234719 -3.65942 9.05735 -32.335 6.52333 0.381201 44.4701 -0.494832 1.08714 -0.0389148 5.4257 -5.36701e-016 -5 -1.59635e-015 11.3769 9.14854 4.16041 -0.0588766 15.4236 -0.0171629 -4.7267 -7.08448 -3.14934 -7.45443e-017 -5 -0 8.39308 7.56404 2.17085 -0.410399 -3.63499 -5.4541 -4.22417e-016 -7.95139e-016 1.98785e-016 6.21461 -0.494531 -22.8729 15.7746 -23.5222 6.78237 -0.361808 -2.38165 -17.215 -4.22417e-016 -7.95139e-016 1.98785e-016 -15.6783 -12.5857 19.3747 -20.1319 -28.4732 -9.46174 0.00390927 -0.204389 1.45854 
1.63343 84.3455 89.9557 -6.29806 0.665762 -4.5943 8.92772 -32.9624 2.0434 0.166001 31.5967 -0.333649 0.668768 2.76766 7.87602 -6.90768e-016 -5 -7.98176e-016 11.2218 13.0775 4.83836 -0.0481621 12.0201 -0.0196351 -4.86854 -6.4762 -2.64659 -2.91959e-017 -5 -4.9886e-017 8.91916 7.03338 3.5529 -0.566855 -3.76598 -5.305 -9.93923e-017 -7.95139e-016 -1.98785e-016 5.0252 0.546144 -21.9013 15.2655 -22.8988 6.48705 -0.379563 -2.43824 -17.6379 -9.93923e-017 -7.95139e-016 -1.98785e-016 -16.8305 -14.4406 19.5553 -20.7448 -29.1154 -9.85862 0.00224602 -0.15669 1.1183 
1.87823 83.74 94.7295 -6.53923 1.10677 -5.39762 8.07577 -33.232 -9.10715 0.0705985 22.6913 -0.291204 -2.47792 1.21363 14.4682 -1.61513e-016 -5 -0 10.6445 16.5768 5.49122 -0.0410806 10.4447 -0.0619916 -5.37141 -6.15437 -1.64753 -1.61524e-017 -5 9.9772e-017 9.27585 6.78218 4.54826 -0.752625 -3.52216 -5.37881 1.98785e-016 7.95139e-016 3.97569e-016 4.17423 1.28452 -21.4729 14.2593 -21.638 5.91547 -0.43322 -2.60065 -18.8572 1.98785e-016 7.95139e-016 3.97569e-016 -17.7739 -15.4521 19.783 -21.5261 -29.9155 -10.3711 0.0009301 -0.105188 0.751837 
2.35503 83.2378 99.4577 -5.91931 1.34641 -5.52613 7.55965 -33.7231 -7.42921 0.0499757 20.2964 -0.0909386 -2.93155 0.750359 13.5293 -0 -5 -0 9.11466 18.9001 4.98297 -0.0466907 11.4946 -0.0306206 -4.81477 -6.51435 -0.0537794 2.16176e-016 -5 1.99544e-016 8.75177 6.18348 4.79653 -0.439337 -3.37125 -4.98834 5.51738e-033 -1.59028e-015 1.98785e-016 3.55007 2.79517 -21.0495 14.035 -21.3517 5.7903 -0.454403 -2.662 -19.3196 5.51738e-033 -1.59028e-015 1.98785e-016 -18.2522 -15.693 19.8632 -22.4008 -30.7867 -10.9531 -0.000187711 -0.00460602 0.0358518 
2.66875 82.9144 104.075 -5.75506 0.99438 -4.53148 7.16314 -34.2586 -1.90228 0.0706179 24.1261 -0.0755362 -1.72339 3.84068 7.75222 2.47805e-018 -5 5.98632e-016 8.73683 21.2171 4.68756 -0.0561142 13.0691 -0.0320099 -5.85725 -5.21278 1.43817 3.97569e-016 -5 -0 8.45114 6.22545 4.25678 -0.132425 -3.35666 -5.26405 -3.85145e-016 -7.95139e-016 -4.96962e-017 3.61686 3.51494 -20.9879 13.2848 -20.3806 5.37776 -0.474489 -2.71875 -19.7485 -3.85145e-016 -7.95139e-016 -4.96962e-017 -18.2511 -15.5284 19.2915 -23.1793 -31.541 -11.4782 -1.01848e-005 0.00737748 -0.0493242 
